<?xml version="1.0" encoding="iso-8859-1"?>
<!-- Uploaded to: SVG Repo, www.svgrepo.com, Generator: SVG Repo Mixer Tools -->
<svg fill="#000000" height="800px" width="800px" version="1.1" id="Layer_1" xmlns="http://www.w3.org/2000/svg" xmlns:xlink="http://www.w3.org/1999/xlink" 
	 viewBox="0 0 512 512" xml:space="preserve">
<g>
	<g>
		<circle cx="83.478" cy="427.743" r="16.696"/>
	</g>
</g>
<g>
	<g>
		<path d="M478.551,360.959C498.846,345.717,512,321.455,512,294.176c0-46.03-37.448-83.478-83.478-83.478h-52.733
			c19.413-37.643,18.495-93.029-15.048-136.308C329.203,33.7,271.973,5.513,211.386,0.832c-7.091-0.558-13.781,3.475-16.61,10.02
			c-2.83,6.544-1.192,14.163,4.077,18.965c9.1,8.294,28.063,23.568,27.77,35.768c-0.151,6.298-5.632,14.249-16.288,23.631
			c-22.109,19.462-79.371,52.627-87.299,109.4c-0.554,3.965-0.742,7.998-0.579,12.082H83.478C37.448,210.697,0,248.145,0,294.175
			c0,27.279,13.154,51.541,33.449,66.783C13.154,376.201,0,400.463,0,427.742c0,46.03,37.448,83.478,83.478,83.478h345.043
			c46.03,0,83.478-37.448,83.478-83.478C512,400.463,498.846,376.201,478.551,360.959z M428.522,244.089
			c27.618,0,50.087,22.469,50.087,50.087c0,27.618-22.469,50.087-50.087,50.087s-50.087-22.469-50.087-50.087
			C378.435,266.558,400.904,244.089,428.522,244.089z M156.107,203.234c5.751-41.178,54.717-69.964,76.294-88.956
			c18.439-16.235,27.211-31.454,27.606-47.892c0.189-7.876-1.554-15.55-5.356-23.275c32.998,10.496,62.023,28.93,79.698,51.734
			c29.262,37.752,26.083,87.467,1.345,115.852H155.914C155.719,208.124,155.773,205.629,156.107,203.234z M116.87,277.481H36.263
			c6.892-19.433,25.45-33.503,47.215-33.503h194.783v16.807c0,9.206-7.49,16.696-16.696,16.696h-77.913
			c-9.22,0-16.696,7.475-16.696,16.696c0,9.22,7.475,16.696,16.696,16.696h77.913c27.618,0,50.087-22.469,50.087-50.087v-16.807
			h50.133c-10.505,13.962-16.741,31.42-16.741,50.198c0,18.778,6.236,36.125,16.741,50.087H83.478
			c-21.766,0-40.323-13.959-47.215-33.391h80.607c9.22,0,16.696-7.475,16.696-16.696C133.565,284.956,126.09,277.481,116.87,277.481
			z M83.478,477.828c-27.618,0-50.087-22.469-50.087-50.087s22.469-50.087,50.087-50.087c27.618,0,50.087,22.469,50.087,50.087
			S111.096,477.828,83.478,477.828z M395.13,444.326h80.607c-6.892,19.433-25.45,33.503-47.215,33.503H150.215
			c10.505-13.962,16.741-31.309,16.741-50.087c0-18.778-6.236-36.125-16.741-50.087h50.133v16.696
			c0,27.618,22.469,50.087,50.087,50.087h77.913c9.22,0,16.696-7.475,16.696-16.696s-7.475-16.696-16.696-16.696h-77.913
			c-9.206,0-16.696-7.49-16.696-16.696v-16.696h194.783c21.766,0,40.323,13.959,47.215,33.391H395.13
			c-9.22,0-16.696,7.475-16.696,16.696S385.91,444.326,395.13,444.326z"/>
	</g>
</g>
<g>
	<g>
		<circle cx="428.522" cy="294.177" r="16.696"/>
	</g>
</g>
</svg>